<svg xmlns="http://www.w3.org/2000/svg" viewBox="0 0 361 353.8"><defs><style>.cls-1{fill:none;}.cls-2{fill:#fcfeff;}.cls-3{fill:#2e96d1;}.cls-4{fill:#b0bbdc;}.cls-5{fill:#d18472;}.cls-6{fill:#aebedd;}.cls-7{fill:#fcf7fb;}.cls-8{fill:#f3cbcc;}.cls-9{fill:#e5ac91;}.cls-10{fill:#c17e64;}.cls-11{fill:#ffddc2;}.cls-12{fill:#d8b5fe;}</style></defs><g id="Layer_2" data-name="Layer 2"><g id="Layer_3" data-name="Layer 3"><polygon class="cls-1" points="273.5 166.38 273.5 166.38 280.06 160.01 273.5 166.38"/><polygon class="cls-1" points="245.26 193.78 261.51 178.02 261.51 178.02 245.26 193.78"/><polygon class="cls-1" points="280.06 160.01 279.49 166.29 311.94 165.8 320.64 158.39 317.28 165.72 349.88 165.23 359.9 158.39 356.22 165.13 361 165.06 361 138.94 300.5 138.94 280.06 160.01"/><polygon class="cls-1" points="349.18 178.02 336.86 200.59 343.36 200.59 361 194.39 361 178.02 349.18 178.02"/><polygon class="cls-1" points="360.97 211.94 361 211.94 361 211.92 360.97 211.94"/><polygon class="cls-1" points="276.82 195.72 297.59 178.02 278.43 178.02 276.82 195.72"/><polygon class="cls-1" points="309.43 96.43 361 96.43 361 74.79 309.43 91.13 309.43 96.43"/><polygon class="cls-1" points="302.78 197.34 331.11 178.02 311.64 178.02 302.78 197.34"/><polygon points="359.9 158.39 349.88 165.23 356.22 165.13 359.9 158.39"/><polygon points="320.64 158.39 311.94 165.8 317.28 165.72 320.64 158.39"/><polygon points="280.06 160.01 273.5 166.38 279.49 166.29 280.06 160.01"/><path d="M171.33,214v66.1L209.47,315H289l36.51-37.94V212L361,233.29V212h0l0,0V194.39l-17.64,6.2h-6.5L349.18,178H331.11l-28.33,19.32L311.64,178H297.59l-20.77,17.7,1.61-17.7H261.51l-16.25,15.76H179.92L74,299.58l22.72,9.32L87,296.33Zm8.59,1.18h45v34.08h-5.1V256l19.7,19.7h29.67l21.55-21.55V230.58h26.68v39.79l-34.05,36.29H260.59V296.34H246.23v10.32H217.8l-37.88-37.88Z"/><polygon class="cls-2" points="219.79 249.27 224.89 249.27 224.89 215.19 190.81 215.19 190.81 249.27 219.79 249.27"/><polygon class="cls-3" points="246.23 306.66 246.23 296.34 260.59 296.34 260.59 306.66 283.34 306.66 317.39 270.37 317.39 230.58 290.71 230.58 290.71 254.14 269.16 275.69 239.49 275.69 219.79 255.99 219.79 249.27 190.81 249.27 190.81 215.19 179.92 215.19 179.92 268.78 217.81 306.66 246.23 306.66"/><polygon class="cls-4" points="171.33 253.67 171.33 226.55 96.68 296.33 109.67 312.56 143.75 317.43 121.84 292.28 171.33 253.67"/><polygon class="cls-5" points="171.33 226.55 171.33 214 86.94 296.33 96.68 308.9 109.67 312.56 96.68 296.33 171.33 226.55"/><polygon class="cls-6" points="361 233.29 325.5 211.94 325.5 277.06 353.09 249.27 361 253.29 361 233.29"/><polygon class="cls-7" points="361 297.98 361 253.3 353.09 249.27 325.5 277.06 288.99 315 209.47 315 171.33 280.11 171.33 253.67 121.84 292.28 143.75 317.43 283.31 325.55 361 297.98"/><polygon class="cls-7" points="353.09 249.27 361 253.3 361 253.29 353.09 249.27"/><polygon class="cls-8" points="283.31 325.55 231 329.8 278 338.8 361 307.89 361 297.98 283.31 325.55"/><polygon class="cls-9" points="278 338.8 231 329.8 283.31 325.55 143.75 317.43 266 353.8 361 340.46 361 307.89 278 338.8"/><polygon class="cls-10" points="245.26 193.78 261.51 178.02 179.92 178.02 69.25 280.29 73.96 299.58 179.92 193.78 245.26 193.78"/><polygon points="309.43 91.13 309.43 91.13 361 74.79 361 0 51 99.8 41 92.8 0 191.8 60.5 163.3 60.5 173.3 138.5 132.3 138.5 145.3 309.43 91.13"/><polygon points="261.51 178.02 261.51 178.02 273.5 166.38 273.5 166.38 273.44 166.44 179.92 167.8 69.25 280.29 179.92 178.02 261.51 178.02"/><polygon points="349.18 178.02 361 178.02 361 165.06 356.22 165.13 349.18 178.02"/><polygon points="279.49 166.29 278.43 178.02 297.59 178.02 311.94 165.8 279.49 166.29"/><polygon points="317.28 165.72 311.64 178.02 331.11 178.02 349.88 165.23 317.28 165.72"/><polygon points="349.88 165.23 331.11 178.02 349.18 178.02 356.22 165.13 349.88 165.23"/><polygon points="311.94 165.8 297.59 178.02 311.64 178.02 317.28 165.72 311.94 165.8"/><polygon points="273.5 166.38 261.51 178.02 278.43 178.02 279.49 166.29 273.5 166.38"/><polygon class="cls-11" points="273.5 166.38 280.06 160.01 300.5 138.94 361 138.94 361 96.43 309.43 96.43 309.43 91.13 138.5 145.3 138.5 132.3 54.93 224.7 69.25 280.29 179.92 167.8 273.5 166.38"/><polygon class="cls-12" points="138.5 145.3 309.43 91.13 309.43 91.13 138.5 145.3"/><polygon class="cls-12" points="273.44 166.44 273.5 166.38 179.92 167.8 273.44 166.44"/></g></g></svg>