<svg xmlns="http://www.w3.org/2000/svg" viewBox="0 0 379.02 363.37"><defs><style>.cls-1{fill:none;stroke:#fff;stroke-miterlimit:10;stroke-width:8px;}</style></defs><g id="Layer_2" data-name="Layer 2"><g id="Layer_3" data-name="Layer 3"><polygon class="cls-1" points="281.16 171.87 281.16 171.87 287.72 165.5 281.16 171.87"/><polygon class="cls-1" points="252.92 199.28 269.16 183.51 269.16 183.51 252.92 199.28"/><polygon class="cls-1" points="287.72 165.5 287.15 171.78 319.59 171.29 328.29 163.88 324.93 171.21 357.53 170.72 367.55 163.88 363.87 170.62 368.65 170.55 368.65 144.43 308.15 144.43 287.72 165.5"/><polygon class="cls-1" points="356.83 183.51 344.52 206.07 351.01 206.07 368.65 199.88 368.65 183.51 356.83 183.51"/><polygon class="cls-1" points="368.63 217.44 368.65 217.44 368.65 217.41 368.63 217.44"/><polygon class="cls-1" points="284.47 201.21 305.24 183.51 286.08 183.51 284.47 201.21"/><polygon class="cls-1" points="317.08 101.92 368.65 101.92 368.65 80.28 317.08 96.62 317.08 101.92"/><polygon class="cls-1" points="310.44 202.83 338.76 183.51 319.29 183.51 310.44 202.83"/><polygon class="cls-1" points="367.55 163.88 357.53 170.72 363.87 170.62 367.55 163.88"/><polygon class="cls-1" points="328.29 163.88 319.59 171.29 324.93 171.21 328.29 163.88"/><polygon class="cls-1" points="287.72 165.5 281.16 171.87 287.15 171.78 287.72 165.5"/><path class="cls-1" d="M179,219.49V285.6l38.13,34.89h79.52l36.52-37.94V217.44l35.49,21.34V217.44h0l0,0V199.88L351,206.08h-6.49l12.31-22.57H338.76l-28.32,19.32,8.85-19.32H305.24l-20.77,17.7,1.61-17.7H269.16l-16.24,15.76H187.58l-106,105.8,22.72,9.32L94.6,301.82Zm8.59,1.19h45v34.08h-5.09v6.72l19.7,19.7h29.66l21.55-21.55V236.07H325v39.79l-34,36.29H268.24V301.83H253.88v10.32H225.46l-37.88-37.88Z"/><polygon class="cls-1" points="227.45 254.76 232.54 254.76 232.54 220.68 198.46 220.68 198.46 254.76 227.45 254.76"/><polygon class="cls-1" points="253.88 312.15 253.88 301.83 268.24 301.83 268.24 312.15 291 312.15 325.04 275.86 325.04 236.07 298.36 236.07 298.36 259.63 276.81 281.18 247.15 281.18 227.45 261.48 227.45 254.76 198.46 254.76 198.46 220.68 187.58 220.68 187.58 274.27 225.46 312.15 253.88 312.15"/><polygon class="cls-1" points="178.99 259.16 178.99 232.04 104.34 301.82 117.32 318.05 151.4 322.92 129.49 297.77 178.99 259.16"/><polygon class="cls-1" points="178.99 232.04 178.99 219.5 94.6 301.82 104.34 314.39 117.32 318.05 104.34 301.82 178.99 232.04"/><polygon class="cls-1" points="368.65 238.78 333.16 217.44 333.16 282.55 360.75 254.76 368.65 258.78 368.65 238.78"/><polygon class="cls-1" points="368.65 303.47 368.65 258.79 360.75 254.76 333.16 282.55 296.64 320.49 217.12 320.49 178.99 285.6 178.99 259.16 129.49 297.77 151.4 322.92 290.96 331.04 368.65 303.47"/><polygon class="cls-1" points="360.75 254.76 368.65 258.79 368.65 258.78 360.75 254.76"/><polygon class="cls-1" points="290.96 331.04 238.65 335.29 285.65 344.29 368.65 313.38 368.65 303.47 290.96 331.04"/><polygon class="cls-1" points="285.65 344.29 238.65 335.29 290.96 331.04 151.4 322.92 273.65 359.29 368.65 345.95 368.65 313.38 285.65 344.29"/><polygon class="cls-1" points="252.92 199.28 269.16 183.51 187.58 183.51 76.91 285.78 81.62 305.07 187.58 199.28 252.92 199.28"/><polygon class="cls-1" points="317.08 96.62 317.08 96.62 368.65 80.28 368.65 5.49 58.65 105.29 48.65 98.29 7.65 197.29 68.15 168.79 68.15 178.79 146.15 137.79 146.15 150.79 317.08 96.62"/><polygon class="cls-1" points="269.16 183.51 269.16 183.51 281.16 171.87 281.16 171.87 281.09 171.94 187.58 173.29 76.91 285.78 187.58 183.51 269.16 183.51"/><polygon class="cls-1" points="356.83 183.51 368.65 183.51 368.65 170.55 363.87 170.62 356.83 183.51"/><polygon class="cls-1" points="287.15 171.78 286.08 183.51 305.24 183.51 319.59 171.29 287.15 171.78"/><polygon class="cls-1" points="324.93 171.21 319.29 183.51 338.76 183.51 357.53 170.72 324.93 171.21"/><polygon class="cls-1" points="357.53 170.72 338.76 183.51 356.83 183.51 363.87 170.62 357.53 170.72"/><polygon class="cls-1" points="319.59 171.29 305.24 183.51 319.29 183.51 324.93 171.21 319.59 171.29"/><polygon class="cls-1" points="281.16 171.87 269.16 183.51 286.08 183.51 287.15 171.78 281.16 171.87"/><polygon class="cls-1" points="281.16 171.87 287.72 165.5 308.15 144.43 368.65 144.43 368.65 101.92 317.08 101.92 317.08 96.62 146.15 150.79 146.15 137.79 62.59 230.19 76.91 285.78 187.58 173.29 281.16 171.87"/><polygon class="cls-1" points="146.15 150.79 317.08 96.62 317.08 96.62 146.15 150.79"/><polygon class="cls-1" points="281.09 171.94 281.16 171.87 187.58 173.29 281.09 171.94"/></g></g></svg>